<?xml version="1.0" encoding="UTF-8" standalone="no"?>
<!DOCTYPE svg PUBLIC "-//W3C//DTD SVG 1.1//EN" "http://www.w3.org/Graphics/SVG/1.1/DTD/svg11.dtd">
<svg version="1.1" xmlns="http://www.w3.org/2000/svg" xmlns:xlink="http://www.w3.org/1999/xlink" preserveAspectRatio="xMidYMid meet" viewBox="0 0 640 640" width="640" height="640"><defs><path d="M133.93 200C133.93 209.36 126.33 216.96 116.96 216.96C107.6 216.96 100 209.36 100 200C100 190.64 107.6 183.04 116.96 183.04C126.33 183.04 133.93 190.64 133.93 200Z" id="d2dArjbZ4v"></path><path d="M133.93 280C133.93 289.36 126.33 296.96 116.96 296.96C107.6 296.96 100 289.36 100 280C100 270.64 107.6 263.04 116.96 263.04C126.33 263.04 133.93 270.64 133.93 280Z" id="c7X8HBPasr"></path><path d="M133.93 360C133.93 369.36 126.33 376.96 116.96 376.96C107.6 376.96 100 369.36 100 360C100 350.64 107.6 343.04 116.96 343.04C126.33 343.04 133.93 350.64 133.93 360Z" id="d2xWENrbnf"></path><path d="M234.76 152.8C234.76 162.16 227.16 169.76 217.8 169.76C208.43 169.76 200.83 162.16 200.83 152.8C200.83 143.43 208.43 135.83 217.8 135.83C227.16 135.83 234.76 143.43 234.76 152.8Z" id="crUcbqDrk"></path><path d="M233.93 230C233.93 239.36 226.33 246.96 216.96 246.96C207.6 246.96 200 239.36 200 230C200 220.64 207.6 213.04 216.96 213.04C226.33 213.04 233.93 220.64 233.93 230Z" id="i38vSPstQv"></path><path d="M233.93 313.04C233.93 322.4 226.33 330 216.96 330C207.6 330 200 322.4 200 313.04C200 303.67 207.6 296.07 216.96 296.07C226.33 296.07 233.93 303.67 233.93 313.04Z" id="h1FGeKcmDA"></path><path d="M233.93 403.04C233.93 412.4 226.33 420 216.96 420C207.6 420 200 412.4 200 403.04C200 393.67 207.6 386.07 216.96 386.07C226.33 386.07 233.93 393.67 233.93 403.04Z" id="d2zqNI9Swt"></path><path d="M351.25 152.8C351.25 162.16 343.65 169.76 334.29 169.76C324.92 169.76 317.32 162.16 317.32 152.8C317.32 143.43 324.92 135.83 334.29 135.83C343.65 135.83 351.25 143.43 351.25 152.8Z" id="foouzZUQ"></path><path d="M350 230C350 239.36 342.4 246.96 333.04 246.96C323.67 246.96 316.07 239.36 316.07 230C316.07 220.64 323.67 213.04 333.04 213.04C342.4 213.04 350 220.64 350 230Z" id="c2HjxyD98N"></path><path d="M350 313.04C350 322.4 342.4 330 333.04 330C323.67 330 316.07 322.4 316.07 313.04C316.07 303.67 323.67 296.07 333.04 296.07C342.4 296.07 350 303.67 350 313.04Z" id="e2RLgETjUQ"></path><path d="M350 403.04C350 412.4 342.4 420 333.04 420C323.67 420 316.07 412.4 316.07 403.04C316.07 393.67 323.67 386.07 333.04 386.07C342.4 386.07 350 393.67 350 403.04Z" id="b3ZIS1Sup0"></path><path d="M452.32 230.65C452.32 240.02 444.72 247.62 435.36 247.62C425.99 247.62 418.39 240.02 418.39 230.65C418.39 221.29 425.99 213.69 435.36 213.69C444.72 213.69 452.32 221.29 452.32 230.65Z" id="b3WyIRtBcU"></path><path d="M452.32 312.98C452.32 322.34 444.72 329.94 435.36 329.94C425.99 329.94 418.39 322.34 418.39 312.98C418.39 303.61 425.99 296.01 435.36 296.01C444.72 296.01 452.32 303.61 452.32 312.98Z" id="b8n2kPVVK"></path><path d="" id="bqsoKvXm"></path><path d="M200.83 152.8L133.69 199.76" id="aheui1WSN"></path><path d="M200.83 230.65L133.69 199.76" id="aXnP6yAZG"></path><path d="M200.83 312.98L133.69 199.76" id="d14Mih7DnA"></path><path d="M200.83 402.44L133.69 199.76" id="a2F6xnlFAQ"></path><path d="M200.83 152.8L133.69 279.05" id="al5IEcMMM"></path><path d="M200.83 230.65L133.69 279.05" id="fx4vXuSM0"></path><path d="M200.83 312.98L133.69 279.05" id="aHnSEdLKx"></path><path d="M200.83 402.44L133.69 279.05" id="cIgOF26S"></path><path d="M200.83 152.8L133.69 359.94" id="b1wP8Yss1e"></path><path d="M198.33 230.65L133.69 359.94" id="b11yRo0SAB"></path><path d="M198.33 312.98L133.69 359.94" id="bbI8JCN1k1"></path><path d="M201.98 402.44L137.33 359.94" id="eDpPbG77E"></path><path d="M317.32 152.8L234.76 152.8" id="k4TXdv8NB"></path><path d="M315.17 230L234.76 230.65" id="cGVEJD07E"></path><path d="M316.17 230L234.67 153.17" id="eEUuFsSHD"></path><path d="M318.17 312.17L236.67 153.17" id="hoOQrshib"></path><path d="M318.17 402.67L235.15 152.67" id="d9Id7VNMg"></path><path d="M317.17 152.67L236.17 231.67" id="d1XlN2BwLq"></path><path d="M317.17 312.67L237.67 231.67" id="h3x19GJxOC"></path><path d="M316.6 400L236.68 231.17" id="a5NIGMNCSZ"></path><path d="M317.17 153.17L235.67 313.17" id="i1iLXwmaAk"></path><path d="M316.17 231.17L238.67 313.67" id="b5cpuxVU"></path><path d="M315.17 310L237.67 312.17" id="blgHLt4Lt"></path><path d="M317.12 402.17L233.72 312.17" id="f1rWLbsb46"></path><path d="M317.12 153.17L235.29 400" id="jsj9TfLVH"></path><path d="M316.6 231.67L236.68 400" id="e3pSu6vvYv"></path><path d="M316.6 311.67L236.68 401.67" id="a4bsCEmf6j"></path><path d="M314.47 400L235.71 400" id="bO1BwScyg"></path><path d="M353.19 230L416.17 230L351.67 151.17" id="c6euuWRPa"></path><path d="M351.17 401.67L417.17 230L352.19 311.17" id="dU0a9sZSO"></path><path d="M353.67 230L415.67 310L353.17 151.67" id="a4EWBwi7x"></path><path d="M353.67 401.67L416.17 310L353.67 310" id="mbbzQfNOm"></path></defs><g><g><g><g><use xlink:href="#d2dArjbZ4v" opacity="1" fill-opacity="0" stroke="#774413" stroke-width="5" stroke-opacity="1"></use></g></g><g><g><use xlink:href="#c7X8HBPasr" opacity="1" fill-opacity="0" stroke="#774413" stroke-width="5" stroke-opacity="1"></use></g></g><g><g><use xlink:href="#d2xWENrbnf" opacity="1" fill-opacity="0" stroke="#774413" stroke-width="5" stroke-opacity="1"></use></g></g><g><g><use xlink:href="#crUcbqDrk" opacity="1" fill-opacity="0" stroke="#774413" stroke-width="5" stroke-opacity="1"></use></g></g><g><g><use xlink:href="#i38vSPstQv" opacity="1" fill-opacity="0" stroke="#774413" stroke-width="5" stroke-opacity="1"></use></g></g><g><g><use xlink:href="#h1FGeKcmDA" opacity="1" fill-opacity="0" stroke="#774413" stroke-width="5" stroke-opacity="1"></use></g></g><g><g><use xlink:href="#d2zqNI9Swt" opacity="1" fill-opacity="0" stroke="#774413" stroke-width="5" stroke-opacity="1"></use></g></g><g><g><use xlink:href="#foouzZUQ" opacity="1" fill-opacity="0" stroke="#774413" stroke-width="5" stroke-opacity="1"></use></g></g><g><g><use xlink:href="#c2HjxyD98N" opacity="1" fill-opacity="0" stroke="#774413" stroke-width="5" stroke-opacity="1"></use></g></g><g><g><use xlink:href="#e2RLgETjUQ" opacity="1" fill-opacity="0" stroke="#774413" stroke-width="5" stroke-opacity="1"></use></g></g><g><g><use xlink:href="#b3ZIS1Sup0" opacity="1" fill-opacity="0" stroke="#774413" stroke-width="5" stroke-opacity="1"></use></g></g><g><g><use xlink:href="#b3WyIRtBcU" opacity="1" fill-opacity="0" stroke="#774413" stroke-width="5" stroke-opacity="1"></use></g></g><g><g><use xlink:href="#b8n2kPVVK" opacity="1" fill-opacity="0" stroke="#774413" stroke-width="5" stroke-opacity="1"></use></g></g><g><g><use xlink:href="#bqsoKvXm" opacity="1" fill-opacity="0" stroke="#774413" stroke-width="10" stroke-opacity="1"></use></g></g><g><g><use xlink:href="#aheui1WSN" opacity="1" fill-opacity="0" stroke="#774413" stroke-width="5" stroke-opacity="1"></use></g></g><g><g><use xlink:href="#aXnP6yAZG" opacity="1" fill-opacity="0" stroke="#774413" stroke-width="5" stroke-opacity="1"></use></g></g><g><g><use xlink:href="#d14Mih7DnA" opacity="1" fill-opacity="0" stroke="#774413" stroke-width="5" stroke-opacity="1"></use></g></g><g><g><use xlink:href="#a2F6xnlFAQ" opacity="1" fill-opacity="0" stroke="#774413" stroke-width="5" stroke-opacity="1"></use></g></g><g><g><use xlink:href="#al5IEcMMM" opacity="1" fill-opacity="0" stroke="#774413" stroke-width="5" stroke-opacity="1"></use></g></g><g><g><use xlink:href="#fx4vXuSM0" opacity="1" fill-opacity="0" stroke="#774413" stroke-width="5" stroke-opacity="1"></use></g></g><g><g><use xlink:href="#aHnSEdLKx" opacity="1" fill-opacity="0" stroke="#774413" stroke-width="5" stroke-opacity="1"></use></g></g><g><g><use xlink:href="#cIgOF26S" opacity="1" fill-opacity="0" stroke="#774413" stroke-width="5" stroke-opacity="1"></use></g></g><g><g><use xlink:href="#b1wP8Yss1e" opacity="1" fill-opacity="0" stroke="#774413" stroke-width="5" stroke-opacity="1"></use></g></g><g><g><use xlink:href="#b11yRo0SAB" opacity="1" fill-opacity="0" stroke="#774413" stroke-width="5" stroke-opacity="1"></use></g></g><g><g><use xlink:href="#bbI8JCN1k1" opacity="1" fill-opacity="0" stroke="#774413" stroke-width="5" stroke-opacity="1"></use></g></g><g><g><use xlink:href="#eDpPbG77E" opacity="1" fill-opacity="0" stroke="#774413" stroke-width="5" stroke-opacity="1"></use></g></g><g><g><use xlink:href="#k4TXdv8NB" opacity="1" fill-opacity="0" stroke="#774413" stroke-width="5" stroke-opacity="1"></use></g></g><g><g><use xlink:href="#cGVEJD07E" opacity="1" fill-opacity="0" stroke="#774413" stroke-width="5" stroke-opacity="1"></use></g></g><g><g><use xlink:href="#eEUuFsSHD" opacity="1" fill-opacity="0" stroke="#774413" stroke-width="5" stroke-opacity="1"></use></g></g><g><g><use xlink:href="#hoOQrshib" opacity="1" fill-opacity="0" stroke="#774413" stroke-width="5" stroke-opacity="1"></use></g></g><g><g><use xlink:href="#d9Id7VNMg" opacity="1" fill-opacity="0" stroke="#774413" stroke-width="5" stroke-opacity="1"></use></g></g><g><g><use xlink:href="#d1XlN2BwLq" opacity="1" fill-opacity="0" stroke="#774413" stroke-width="5" stroke-opacity="1"></use></g></g><g><g><use xlink:href="#h3x19GJxOC" opacity="1" fill-opacity="0" stroke="#774413" stroke-width="5" stroke-opacity="1"></use></g></g><g><g><use xlink:href="#a5NIGMNCSZ" opacity="1" fill-opacity="0" stroke="#774413" stroke-width="5" stroke-opacity="1"></use></g></g><g><g><use xlink:href="#i1iLXwmaAk" opacity="1" fill-opacity="0" stroke="#774413" stroke-width="5" stroke-opacity="1"></use></g></g><g><g><use xlink:href="#b5cpuxVU" opacity="1" fill-opacity="0" stroke="#774413" stroke-width="5" stroke-opacity="1"></use></g></g><g><g><use xlink:href="#blgHLt4Lt" opacity="1" fill-opacity="0" stroke="#774413" stroke-width="5" stroke-opacity="1"></use></g></g><g><g><use xlink:href="#f1rWLbsb46" opacity="1" fill-opacity="0" stroke="#774413" stroke-width="5" stroke-opacity="1"></use></g></g><g><g><use xlink:href="#jsj9TfLVH" opacity="1" fill-opacity="0" stroke="#774413" stroke-width="5" stroke-opacity="1"></use></g></g><g><g><use xlink:href="#e3pSu6vvYv" opacity="1" fill-opacity="0" stroke="#774413" stroke-width="5" stroke-opacity="1"></use></g></g><g><g><use xlink:href="#a4bsCEmf6j" opacity="1" fill-opacity="0" stroke="#774413" stroke-width="5" stroke-opacity="1"></use></g></g><g><g><use xlink:href="#bO1BwScyg" opacity="1" fill-opacity="0" stroke="#774413" stroke-width="5" stroke-opacity="1"></use></g></g><g><g><use xlink:href="#c6euuWRPa" opacity="1" fill-opacity="0" stroke="#774413" stroke-width="5" stroke-opacity="1"></use></g></g><g><g><use xlink:href="#dU0a9sZSO" opacity="1" fill-opacity="0" stroke="#774413" stroke-width="5" stroke-opacity="1"></use></g></g><g><g><use xlink:href="#a4EWBwi7x" opacity="1" fill-opacity="0" stroke="#774413" stroke-width="5" stroke-opacity="1"></use></g></g><g><g><use xlink:href="#mbbzQfNOm" opacity="1" fill-opacity="0" stroke="#774413" stroke-width="5" stroke-opacity="1"></use></g></g></g></g></svg>